<svg xmlns="http://www.w3.org/2000/svg" viewBox="0 0 100.7 74.9" enable-background="new 0 0 100.7 74.9"><path fill="#fff" stroke="#fff" stroke-width="5" stroke-miterlimit="10" d="M65.8 4c-10 22.6-20 45.1-30 67.7-.5-.2-1-.4-1.5-.7 10-22.6 20-45.1 30-67.7.5.2 1 .4 1.5.7zM29.5 19.3C22.1 25.2 14.7 31 6.8 37.4c7.8 6.2 15.2 12.2 22.6 18.1-.3.4-.7.8-1 1.2-8-6.3-16-12.6-24.5-19.4 8.5-6.7 16.5-13 24.4-19.4.5.6.8 1 1.2 1.4zM94 37.4C86 31 78.6 25.2 71.3 19.3c.3-.4.7-.8 1-1.3 8 6.3 15.9 12.6 24.4 19.3-8.4 6.7-16.4 13-24.3 19.3-.3-.4-.7-.8-1-1.2 7.3-5.8 14.7-11.7 22.6-18z"/></svg>