<svg xmlns="http://www.w3.org/2000/svg" viewBox="-205 297 200 200" enable-background="new -205 297 200 200"><path fill="#fff" d="M-5 348.8v34.6c-1.3 5.5-4.2 10.6-8.5 14.8-6 5.8-14.1 9-22.7 9H-90v-10.5c0-4.5-3.6-8.1-8.1-8.1h-13.8c-4.5 0-8.1 3.6-8.1 8.1v10.5h-53.9c-8.6 0-16.6-3.2-22.7-9-4.3-4.1-7.2-9.2-8.5-14.8v-34.6c0-7.5 6.1-13.6 13.6-13.6h172.9c7.5 0 13.6 6.2 13.6 13.6zm-93.1 77c.7 0 1.3-.6 1.3-1.3v-27.8c0-.7-.6-1.3-1.3-1.3h-13.8c-.7 0-1.3.6-1.3 1.3v27.8c0 .7.6 1.3 1.3 1.3h13.8zm89.3-22.7c-7.3 7-17 10.9-27.4 10.9H-90v10.5c0 4.4-3.6 8.1-8.1 8.1h-13.8c-4.5 0-8.1-3.6-8.1-8.1V414h-53.9c-10.3 0-20-3.9-27.4-10.9-1.4-1.3-2.7-2.8-3.8-4.2v73.5c0 7.5 6.1 13.6 13.6 13.6h172.9c7.5 0 13.6-6.1 13.6-13.6v-73.5c-1.1 1.4-2.4 2.8-3.8 4.2zm-64.9-91c-2.7-2.7-6.1-4-9.6-4h-43.4c-3.5 0-7 1.3-9.6 4-2.6 2.6-4 6.1-4 9.6v6.8h11.5v-6.8c0-.4.1-.9.6-1.4.5-.5 1.1-.6 1.4-.6h43.4c.4 0 .9.1 1.4.6.5.5.6 1.1.6 1.4v6.8h11.5v-6.8c.2-3.5-1.2-7-3.8-9.6z"/></svg>