<?xml version="1.0" encoding="utf-8"?>
<!-- Generator: Adobe Illustrator 18.1.1, SVG Export Plug-In . SVG Version: 6.00 Build 0)  -->
<svg version="1.1" id="Layer_1" xmlns="http://www.w3.org/2000/svg" xmlns:xlink="http://www.w3.org/1999/xlink" x="0px" y="0px"
	 viewBox="-205 297 200 200" enable-background="new -205 297 200 200" xml:space="preserve">
<path fill="#FFFFFF" d="M-5,348.8v34.6c-1.3,5.5-4.2,10.6-8.5,14.8c-6,5.8-14.1,9-22.7,9H-90v-10.5c0-4.5-3.6-8.1-8.1-8.1h-13.8
	c-4.5,0-8.1,3.6-8.1,8.1v10.5h-53.9c-8.6,0-16.6-3.2-22.7-9c-4.3-4.1-7.2-9.2-8.5-14.8v-34.6c0-7.5,6.1-13.6,13.6-13.6h172.9
	C-11.1,335.2-5,341.4-5,348.8z M-98.1,425.8c0.7,0,1.3-0.6,1.3-1.3V414v-6.8v-10.5c0-0.7-0.6-1.3-1.3-1.3h-13.8
	c-0.7,0-1.3,0.6-1.3,1.3v10.5v6.8v10.5c0,0.7,0.6,1.3,1.3,1.3H-98.1z M-8.8,403.1c-7.3,7-17,10.9-27.4,10.9H-90v10.5
	c0,4.4-3.6,8.1-8.1,8.1h-13.8c-4.5,0-8.1-3.6-8.1-8.1V414h-53.9c-10.3,0-20-3.9-27.4-10.9c-1.4-1.3-2.7-2.8-3.8-4.2v73.5
	c0,7.5,6.1,13.6,13.6,13.6h172.9c7.5,0,13.6-6.1,13.6-13.6v-73.5C-6.1,400.3-7.4,401.7-8.8,403.1z M-73.7,312.1
	c-2.7-2.7-6.1-4-9.6-4h-43.4c-3.5,0-7,1.3-9.6,4c-2.6,2.6-4,6.1-4,9.6v6.8h11.5v-6.8c0-0.4,0.1-0.9,0.6-1.4c0.5-0.5,1.1-0.6,1.4-0.6
	h43.4c0.4,0,0.9,0.1,1.4,0.6c0.5,0.5,0.6,1.1,0.6,1.4v6.8h11.5v-6.8C-69.7,318.2-71.1,314.7-73.7,312.1z"/>
</svg>
