<?xml version="1.0" encoding="utf-8"?>
<!-- Generator: Adobe Illustrator 18.1.1, SVG Export Plug-In . SVG Version: 6.00 Build 0)  -->
<svg version="1.1" id="Layer_1" xmlns="http://www.w3.org/2000/svg" xmlns:xlink="http://www.w3.org/1999/xlink" x="0px" y="0px"
	 viewBox="0 0 100.7 74.9" enable-background="new 0 0 100.7 74.9" xml:space="preserve">
<path fill="#FFFFFF" stroke="#FFFFFF" stroke-width="5" stroke-miterlimit="10" d="M65.8,4c-10,22.6-20,45.1-30,67.7
	c-0.5-0.2-1-0.4-1.5-0.7c10-22.6,20-45.1,30-67.7C64.8,3.5,65.3,3.7,65.8,4z"/>
<path fill="#FFFFFF" stroke="#FFFFFF" stroke-width="5" stroke-miterlimit="10" d="M29.5,19.3C22.1,25.2,14.7,31,6.8,37.4
	c7.8,6.2,15.2,12.2,22.6,18.1c-0.3,0.4-0.7,0.8-1,1.2c-8-6.3-16-12.6-24.5-19.4c8.5-6.7,16.5-13,24.4-19.4
	C28.8,18.5,29.1,18.9,29.5,19.3z"/>
<path fill="#FFFFFF" stroke="#FFFFFF" stroke-width="5" stroke-miterlimit="10" d="M94,37.4C86,31,78.6,25.2,71.3,19.3
	c0.3-0.4,0.7-0.8,1-1.3c8,6.3,15.9,12.6,24.4,19.3c-8.4,6.7-16.4,13-24.3,19.3c-0.3-0.4-0.7-0.8-1-1.2C78.7,49.6,86.1,43.7,94,37.4z
	"/>
</svg>
