<svg xmlns="http://www.w3.org/2000/svg" viewBox="0 0 112.2 111.6" enable-background="new 0 0 112.2 111.6"><path fill="#fff" d="M103.9 79v32.6H8.3V79.1c7.1.9 13-2.1 19.1-5.2 4.6-2.4 10-2.1 14.7 1 9.1 5.8 18.2 6.1 27.4.2 5.5-3.5 11.4-3.9 16.9-.4 5.4 3.2 10.9 5.1 17.5 4.3zM28 47.8V36.3c2.5-1.2 5 0 7.9-.8v12H52V36.1h8v11.4h16.1V36h8.1v11.8c6.5 0 12.6-.1 18.7 0 6.3.1 9.2 2.9 9.3 9.1.1 3.7-.3 7.4.1 11 .3 3.5-1.2 5.2-4.3 6.1-6.2 1.8-12.2 1.7-17.7-1.9-7.9-5.1-15.5-4.7-23.5-.1-7.2 4.2-14.5 4.9-22-.2-7.1-4.8-14.7-4.7-22-.2-6.3 3.9-12.7 4.6-19.5 2C.8 72.7-.2 71 0 68.3c.2-3.6 0-7.3.1-11 .1-6.6 2.9-9.5 9.4-9.6 5.9 0 11.9.1 18.5.1zM32.1.1c3.5 7 6 13.2 7.7 19.8 1.1 4.3-.3 7.9-3.7 10.6-2.5 2-5.3 1.9-7.8 0-3.5-2.7-4.9-6.4-3.8-10.6C26 13.3 28.7 7.1 32.1.1zM56 0c3.5 6.9 6 13.2 7.7 19.7 1.1 4.2-.2 8-3.7 10.7-2.5 1.9-5.3 2.1-7.9.1-3.5-2.6-4.8-6.3-3.8-10.6C49.9 13.3 52.8 7.2 56 0zM80.1 0c3.2 7.2 6.2 13.4 7.7 20.2.9 4.2-.5 7.9-4.2 10.4-2.5 1.7-5.1 1.5-7.5-.1-3.6-2.6-4.8-6.4-3.8-10.6C74 13.3 76.6 7.1 80.1 0z"/></svg>