<?xml version="1.0" encoding="utf-8"?>
<!-- Generator: Adobe Illustrator 18.1.1, SVG Export Plug-In . SVG Version: 6.00 Build 0)  -->
<svg version="1.1" id="Layer_1" xmlns="http://www.w3.org/2000/svg" xmlns:xlink="http://www.w3.org/1999/xlink" x="0px" y="0px"
	 viewBox="-229 320 153 153" enable-background="new -229 320 153 153" xml:space="preserve">
<rect x="-229" y="320" fill="#8CC152" width="153" height="153"/>
<path fill="#FFFFFF" d="M-102.6,434.1c3.8-7.2-4.4-11.6-4.4-11.6c-5.5-3.6-10.9-7.1-16.4-10.7c-5.3-3.4-8.5-2.1-11.7,0.8l27.6,27.8
	C-105.7,438.8-104.1,436.6-102.6,434.1z"/>
<path fill="#FFFFFF" d="M-170.6,362.9c-3.7-5.6-10.3-20.9-19.3-16c-2.3,1.4-4.3,2.9-5.9,4.5l27.4,27.6
	C-164.7,373.9-166,369.9-170.6,362.9z"/>
<path fill="#FFFFFF" d="M-172.4,383.2l-27.2-27.4c-12.9,19.5,9.6,48.2,23.7,63c14.2,15,44,37.8,64,25.3l-27.1-27.3
	C-150.3,427.7-183.2,394.3-172.4,383.2z"/>
</svg>
