<?xml version="1.0" encoding="utf-8"?>
<!-- Generator: Adobe Illustrator 18.1.1, SVG Export Plug-In . SVG Version: 6.00 Build 0)  -->
<svg version="1.1" id="Layer_1" xmlns="http://www.w3.org/2000/svg" xmlns:xlink="http://www.w3.org/1999/xlink" x="0px" y="0px"
	 viewBox="13.8 137.1 584.9 491.9" enable-background="new 13.8 137.1 584.9 491.9" xml:space="preserve">
<image overflow="visible" width="340" height="680" xlink:href="E:\Dropbox\design\flattastic.png"  transform="matrix(0.9439 0 0 0.9439 -565 0)">
</image>
<g>
	<polyline fill="#F6BB42" points="146.8,190.3 146.8,296.6 173.4,296.6 173.4,190.3 146.8,190.3 	"/>
	<polyline fill="#F6BB42" points="293,190.3 293,296.6 319.6,296.6 319.6,190.3 293,190.3 	"/>
	<polyline fill="#F6BB42" points="439.2,190.3 439.2,296.6 465.8,296.6 465.8,190.3 439.2,190.3 	"/>
	<path fill="#F6BB42" d="M159.9,177c13.5,0.1,21.8-14.6,0-39.9C138.5,162.4,146.8,176.8,159.9,177L159.9,177"/>
	<path fill="#F6BB42" d="M306.2,177c13.5,0.1,21.8-14.6,0-39.9C284.7,162.4,293,176.8,306.2,177L306.2,177"/>
	<path fill="#F6BB42" d="M545.8,309.9H66.8c-29.2,0-52.9,24-52.9,53.4v212.2c0,29.5,23.7,53.4,52.9,53.4h479.1
		c29.2,0,52.9-24,52.9-53.4V363.3C598.8,333.8,575.1,309.9,545.8,309.9z M572.2,575.6c0,14.8-11.9,26.8-26.4,26.8H66.8
		c-14.5,0-26.4-11.9-26.4-26.8V458.4c11.2,8.4,22.2,14.9,33,19.1c8.6,3.3,16.8,5.2,24.8,5.2c18.4,0,31.7-7.7,52.3-25.6
		c2.5-2.2,2.5-2.2,4.9-4.3c19.8-17.4,29.7-23.3,42.5-23.3c13,0,23.5,5.9,46.1,23.7c1.7,1.3,1.7,1.3,3.4,2.7
		c24.2,19.1,38.4,26.8,57.9,26.8c20.5,0,34.3-7.7,62.3-29.4c1.9-1.5,1.9-1.5,3.8-2.9c19.7-15.2,30.3-20.9,41.3-20.9
		c10.5,0,20.2,5.8,42,23.6c1.8,1.5,1.8,1.5,3.6,3c23.2,18.9,36.8,26.6,54.6,26.6c10.3,0,21.4-3.3,33.3-9.3c8.4-4.3,17.2-9.8,26-16.4
		V575.6z M572.2,422.9c-3.7,3.2-7.6,6.4-11.5,9.4c-9.3,7.2-18.3,13.2-26.6,17.3c-8.5,4.3-15.7,6.5-21.3,6.5
		c-9.5,0-19.4-5.7-37.8-20.7c-1.8-1.4-1.8-1.4-3.6-2.9c-26.8-21.9-39.7-29.6-58.8-29.6c-18.9,0-33.2,7.7-57.5,26.4
		c-1.9,1.5-1.9,1.5-3.8,3c-23.2,17.9-33.7,23.8-46,23.8c-11.5,0-21.8-5.6-41.4-21.1c-1.7-1.3-1.7-1.3-3.3-2.6
		c-27.3-21.6-41.4-29.5-62.6-29.5c-21.5,0-35.5,8.3-60.1,29.9c-2.4,2.1-2.4,2.1-4.8,4.2c-16,13.9-24.9,19-34.8,19
		c-4.4,0-9.5-1.1-15.1-3.3c-10-3.9-21.1-11-32.7-20.3c-3.4-2.8-6.8-5.6-10-8.6v-60.6c0-14.8,11.9-26.8,26.4-26.8h479.1
		c14.5,0,26.4,11.9,26.4,26.8V422.9z"/>
	<path fill="#F6BB42" d="M452.4,177c13.5,0.1,21.8-14.6,0-39.9C431,162.4,439.2,176.8,452.4,177z"/>
</g>
</svg>
