<svg xmlns="http://www.w3.org/2000/svg" xmlns:xlink="http://www.w3.org/1999/xlink" viewBox="13.8 137.1 584.9 491.9" enable-background="new 13.8 137.1 584.9 491.9"><image overflow="visible" width="340" height="680" xlink:href="E:\Dropbox\design\flattastic.png" transform="matrix(.944 0 0 .944 -565 0)"/><g fill="#F6BB42"><path d="M146.8 190.3v106.3h26.6V190.3h-26.6M293 190.3v106.3h26.6V190.3H293M439.2 190.3v106.3h26.6V190.3h-26.6M159.9 177c13.5.1 21.8-14.6 0-39.9-21.4 25.3-13.1 39.7 0 39.9M306.2 177c13.5.1 21.8-14.6 0-39.9-21.5 25.3-13.2 39.7 0 39.9"/><path d="M545.8 309.9h-479c-29.2 0-52.9 24-52.9 53.4v212.2c0 29.5 23.7 53.4 52.9 53.4h479.1c29.2 0 52.9-24 52.9-53.4V363.3c0-29.5-23.7-53.4-53-53.4zm26.4 265.7c0 14.8-11.9 26.8-26.4 26.8h-479c-14.5 0-26.4-11.9-26.4-26.8V458.4c11.2 8.4 22.2 14.9 33 19.1 8.6 3.3 16.8 5.2 24.8 5.2 18.4 0 31.7-7.7 52.3-25.6 2.5-2.2 2.5-2.2 4.9-4.3 19.8-17.4 29.7-23.3 42.5-23.3 13 0 23.5 5.9 46.1 23.7 1.7 1.3 1.7 1.3 3.4 2.7 24.2 19.1 38.4 26.8 57.9 26.8 20.5 0 34.3-7.7 62.3-29.4 1.9-1.5 1.9-1.5 3.8-2.9 19.7-15.2 30.3-20.9 41.3-20.9 10.5 0 20.2 5.8 42 23.6l3.6 3c23.2 18.9 36.8 26.6 54.6 26.6 10.3 0 21.4-3.3 33.3-9.3 8.4-4.3 17.2-9.8 26-16.4v118.6zm0-152.7c-3.7 3.2-7.6 6.4-11.5 9.4-9.3 7.2-18.3 13.2-26.6 17.3-8.5 4.3-15.7 6.5-21.3 6.5-9.5 0-19.4-5.7-37.8-20.7-1.8-1.4-1.8-1.4-3.6-2.9-26.8-21.9-39.7-29.6-58.8-29.6-18.9 0-33.2 7.7-57.5 26.4l-3.8 3c-23.2 17.9-33.7 23.8-46 23.8-11.5 0-21.8-5.6-41.4-21.1-1.7-1.3-1.7-1.3-3.3-2.6-27.3-21.6-41.4-29.5-62.6-29.5-21.5 0-35.5 8.3-60.1 29.9l-4.8 4.2c-16 13.9-24.9 19-34.8 19-4.4 0-9.5-1.1-15.1-3.3-10-3.9-21.1-11-32.7-20.3-3.4-2.8-6.8-5.6-10-8.6v-60.6c0-14.8 11.9-26.8 26.4-26.8H546c14.5 0 26.4 11.9 26.4 26.8v59.7zM452.4 177c13.5.1 21.8-14.6 0-39.9-21.4 25.3-13.2 39.7 0 39.9z"/></g></svg>