<svg xmlns="http://www.w3.org/2000/svg" viewBox="316.5 476.1 339.9 339.4" enable-background="new 316.5 476.1 339.9 339.4"><g fill="#AC92EC"><path d="M655.8 574.2c-4.4 3.9-9.7 3.4-15 3.4H331.5c-5.3 0-10.6.6-15-3.4v-8c51-27.4 102.1-54.8 153-82.4 4-2.2 9.2-2.8 11.4-7.8h10.6c2.4 4.8 7.5 5.7 11.6 7.9 50.9 27.5 101.8 54.8 152.8 82.2-.1 2.8-.1 5.5-.1 8.1zm-35.9-10.9c-44.6-24.1-85.7-46-126.5-68.4-6.1-3.4-10.5-2.1-15.8.8-37.9 20.6-75.9 40.9-113.9 61.5-2.7 1.5-6.9 1.6-7.5 6.1h263.7zM316.5 804.8c5.1-2.8 10.6-3.5 16.4-3.5 101.9.1 203.7.1 305.6 0 6.8 0 12.9.4 17.3 6.2 2.4 9.1-3.5 8-9.3 8-110-.1-220-.1-330-.1v-10.6zM510.6 762h-49.7V591.5c16.3-3.7 32.5-.4 49.7-1.2V762zm-34.3-155.6v142.4c7.4-.4 13.8 1.2 19.7-.9V606.5c-7-.1-13.1-.1-19.7-.1zM596.1 762.3h-49.4V591c16.3-2.1 32.6-2.9 49.4.2v171.1zm-15-13.9V605.1c-7.2-.9-13.6-1.5-20.1.5v142.8h20.1zM426 590.9v171h-49.6v-171H426zm-14.8 157.5V605.2h-20.1v143.2h20.1zM486.1 786.6c-41.1 0-82.2.1-123.3-.1-5.8 0-14.1 2.2-14-7.2.1-8.3 7.8-6.6 13.3-6.6 82.2-.1 164.3-.1 246.5 0 5.7 0 14.5-2.5 14.6 6.6.1 10.2-9.3 7.2-15.3 7.2-40.5.2-81.1.1-121.8.1z"/></g></svg>