<?xml version="1.0" encoding="utf-8"?>
<!-- Generator: Adobe Illustrator 18.1.1, SVG Export Plug-In . SVG Version: 6.00 Build 0)  -->
<svg version="1.1" id="Layer_1" xmlns="http://www.w3.org/2000/svg" xmlns:xlink="http://www.w3.org/1999/xlink" x="0px" y="0px"
	 viewBox="4 4 60 60" enable-background="new 4 4 60 60" xml:space="preserve">
<path fill="#FFFFFF" d="M36.5,25.6c0-1.5,0.1-2.3,2.2-2.3h2.8v-5.6h-4.5c-5.4,0-7.3,2.7-7.3,7.3v3.4h-3.4V34h3.4v16.3h6.7V34H41
	l0.6-5.6h-5.1L36.5,25.6z"/>
<path fill="#3A589B" d="M34,4C17.4,4,4,17.4,4,34c0,16.6,13.4,30,30,30s30-13.4,30-30C64,17.4,50.6,4,34,4z M41,34h-4.5v16.3h-6.7
	V34h-3.4v-5.6h3.4V25c0-4.6,1.9-7.3,7.3-7.3h4.5v5.6h-2.8c-2.1,0-2.2,0.8-2.2,2.3l0,2.8h5.1L41,34z"/>
</svg>
