<svg xmlns="http://www.w3.org/2000/svg" xmlns:xlink="http://www.w3.org/1999/xlink" viewBox="101.8 178.9 580.9 492.2" enable-background="new 101.8 178.9 580.9 492.2"><image overflow="visible" width="340" height="680" xlink:href="E:\Dropbox\design\flattastic.png" transform="matrix(.944 0 0 .944 -565 0)"/><path fill="#ED5565" d="M526.4 178.9c-100.7 0-134.2 80.1-134.2 80.1s-33.6-80.1-134.2-80.1S101.8 259 101.8 350.7c0 171.8 290.4 320.5 290.4 320.5s290.4-148.7 290.4-320.5c.5-91.7-55.6-171.8-156.2-171.8zm-1 380.6c-55.6 44.6-111.2 77.1-132.7 88.6-21.5-12-77.6-44.1-133.2-89.1-63.1-50.6-137.7-127.7-137.7-208.3 0-41.6 12.5-79.6 35.6-107.2 24.5-29 59.6-44.6 101.2-44.6 86.1 0 115.2 67.1 115.7 67.6l18.5 44.1 18.5-44.1c1-2.5 30-67.6 115.2-67.6 41.6 0 76.1 15.5 100.7 44.6 23 27.5 35.6 65.6 35.6 107.2.3 80.6-74.8 158.2-137.4 208.8z"/></svg>