<?xml version="1.0" encoding="utf-8"?>
<!-- Generator: Adobe Illustrator 18.1.1, SVG Export Plug-In . SVG Version: 6.00 Build 0)  -->
<svg version="1.1" id="Layer_1" xmlns="http://www.w3.org/2000/svg" xmlns:xlink="http://www.w3.org/1999/xlink" x="0px" y="0px"
	 viewBox="101.8 178.9 580.9 492.2" enable-background="new 101.8 178.9 580.9 492.2" xml:space="preserve">
<image overflow="visible" width="340" height="680" xlink:href="E:\Dropbox\design\flattastic.png"  transform="matrix(0.9439 0 0 0.9439 -565 7.530384e-006)">
</image>
<path fill="#ED5565" d="M526.4,178.9c-100.7,0-134.2,80.1-134.2,80.1s-33.6-80.1-134.2-80.1S101.8,259,101.8,350.7
	c0,171.8,290.4,320.5,290.4,320.5s290.4-148.7,290.4-320.5C683.1,259,627,178.9,526.4,178.9z M525.4,559.5
	c-55.6,44.6-111.2,77.1-132.7,88.6c-21.5-12-77.6-44.1-133.2-89.1c-63.1-50.6-137.7-127.7-137.7-208.3c0-41.6,12.5-79.6,35.6-107.2
	c24.5-29,59.6-44.6,101.2-44.6c86.1,0,115.2,67.1,115.7,67.6l18.5,44.1l18.5-44.1c1-2.5,30-67.6,115.2-67.6
	c41.6,0,76.1,15.5,100.7,44.6c23,27.5,35.6,65.6,35.6,107.2C663.1,431.3,588,508.9,525.4,559.5z"/>
</svg>
