<?xml version="1.0" encoding="utf-8"?>
<!-- Generator: Adobe Illustrator 18.1.1, SVG Export Plug-In . SVG Version: 6.00 Build 0)  -->
<svg version="1.1" id="Layer_1" xmlns="http://www.w3.org/2000/svg" xmlns:xlink="http://www.w3.org/1999/xlink" x="0px" y="0px"
	 viewBox="4 4 60 60" enable-background="new 4 4 60 60" xml:space="preserve">
<rect x="19.6" y="27.7" fill="#FFFFFF" width="6.8" height="20.4"/>
<path fill="#FFFFFF" d="M23,17.9c-2.3,0-3.8,1.5-3.8,3.5c0,2,1.5,3.5,3.8,3.5h0c2.4,0,3.8-1.6,3.8-3.5C26.8,19.4,25.3,17.9,23,17.9z
	"/>
<path fill="#FFFFFF" d="M43,27.2c-3.6,0-5.2,2-6.1,3.4v-2.9h-6.8c0.1,1.9,0,20.4,0,20.4h6.8V36.7c0-0.6,0-1.2,0.2-1.7
	c0.5-1.2,1.6-2.5,3.5-2.5c2.5,0,3.4,1.9,3.4,4.6v10.9h6.8v0V36.4C50.8,30.2,47.5,27.2,43,27.2z"/>
<path fill="#007AB9" d="M34,4C17.4,4,4,17.4,4,34c0,16.6,13.4,30,30,30s30-13.4,30-30C64,17.4,50.6,4,34,4z M50.8,48.1L50.8,48.1
	l-6.8,0V37.2c0-2.7-1-4.6-3.4-4.6c-1.9,0-3,1.3-3.5,2.5c-0.2,0.4-0.2,1-0.2,1.7v11.4h-6.8c0,0,0.1-18.5,0-20.4h6.8v2.9
	c0.9-1.4,2.5-3.4,6.1-3.4c4.5,0,7.8,2.9,7.8,9.2V48.1z M23,17.9c2.3,0,3.8,1.5,3.8,3.5c0,2-1.5,3.5-3.8,3.5h0
	c-2.3,0-3.8-1.6-3.8-3.5C19.2,19.4,20.7,17.9,23,17.9z M26.4,27.7v20.4h-6.8V27.7H26.4z"/>
</svg>
