<svg xmlns="http://www.w3.org/2000/svg" viewBox="4 4 60 60" enable-background="new 4 4 60 60"><path fill="#fff" d="M19.6 27.7h6.8v20.4h-6.8zM23 17.9c-2.3 0-3.8 1.5-3.8 3.5s1.5 3.5 3.8 3.5c2.4 0 3.8-1.6 3.8-3.5 0-2-1.5-3.5-3.8-3.5zM43 27.2c-3.6 0-5.2 2-6.1 3.4v-2.9h-6.8c.1 1.9 0 20.4 0 20.4h6.8V36.7c0-.6 0-1.2.2-1.7.5-1.2 1.6-2.5 3.5-2.5 2.5 0 3.4 1.9 3.4 4.6V48h6.8V36.4c0-6.2-3.3-9.2-7.8-9.2z"/><path fill="#007AB9" d="M34 4C17.4 4 4 17.4 4 34s13.4 30 30 30 30-13.4 30-30S50.6 4 34 4zm16.8 44.1H44V37.2c0-2.7-1-4.6-3.4-4.6-1.9 0-3 1.3-3.5 2.5-.2.4-.2 1-.2 1.7v11.4h-6.8s.1-18.5 0-20.4h6.8v2.9c.9-1.4 2.5-3.4 6.1-3.4 4.5 0 7.8 2.9 7.8 9.2v11.6zM23 17.9c2.3 0 3.8 1.5 3.8 3.5s-1.5 3.5-3.8 3.5-3.8-1.6-3.8-3.5c0-2 1.5-3.5 3.8-3.5zm3.4 9.8v20.4h-6.8V27.7h6.8z"/></svg>