<?xml version="1.0" encoding="utf-8"?>
<!-- Generator: Adobe Illustrator 18.1.1, SVG Export Plug-In . SVG Version: 6.00 Build 0)  -->
<svg version="1.1" id="Layer_1" xmlns="http://www.w3.org/2000/svg" xmlns:xlink="http://www.w3.org/1999/xlink" x="0px" y="0px"
	 viewBox="170.8 219.1 604.6 792" enable-background="new 170.8 219.1 604.6 792" xml:space="preserve">
<g>
	<path fill="#48CFAD" d="M473,219.1c-167.6,0-302.2,135.9-302.2,302.2S473,1011.1,473,1011.1s302.4-322,302.4-489.6
		S640.6,219.1,473,219.1z M473,971.6c-27.8-30.4-79.2-89.7-130.7-159.8C247.2,683.7,197.1,583.4,197.1,520
		c0-151.8,124-275.9,275.9-275.9s275.9,125.3,275.9,277.2c0,62.1-50.3,163.7-145.2,291.8C552.1,881.9,500.8,941.2,473,971.6z"/>
	<path fill="#48CFAD" d="M473,364.5c-79.2,0-142.6,63.4-142.6,142.6S393.8,649.6,473,649.6S615.6,586.2,615.6,507
		C615.6,429,552.1,364.5,473,364.5z M555,590.1c-21.1,21.1-50.3,34.3-81.7,34.3s-60.8-13.2-81.7-34.3
		c-21.1-21.1-34.3-50.3-34.3-81.7s13.2-60.8,34.3-81.7c21.1-20.9,50.3-34.3,81.7-34.3s60.8,13.2,81.7,34.3
		c21.1,21.1,34.3,50.3,34.3,81.7S576.1,568.9,555,590.1z"/>
</g>
</svg>
