<svg xmlns="http://www.w3.org/2000/svg" viewBox="170.8 219.1 604.6 792" enable-background="new 170.8 219.1 604.6 792"><g fill="#48CFAD"><path d="M473 219.1c-167.6 0-302.2 135.9-302.2 302.2S473 1011.1 473 1011.1s302.4-322 302.4-489.6S640.6 219.1 473 219.1zm0 752.5c-27.8-30.4-79.2-89.7-130.7-159.8C247.2 683.7 197.1 583.4 197.1 520c0-151.8 124-275.9 275.9-275.9s275.9 125.3 275.9 277.2c0 62.1-50.3 163.7-145.2 291.8-51.6 68.8-102.9 128.1-130.7 158.5zM473 364.5c-79.2 0-142.6 63.4-142.6 142.6S393.8 649.6 473 649.6 615.6 586.2 615.6 507c0-78-63.5-142.5-142.6-142.5zm82 225.6c-21.1 21.1-50.3 34.3-81.7 34.3s-60.8-13.2-81.7-34.3c-21.1-21.1-34.3-50.3-34.3-81.7s13.2-60.8 34.3-81.7c21.1-20.9 50.3-34.3 81.7-34.3s60.8 13.2 81.7 34.3c21.1 21.1 34.3 50.3 34.3 81.7s-13.2 60.5-34.3 81.7z"/></g></svg>