<?xml version="1.0" encoding="utf-8"?>
<!-- Generator: Adobe Illustrator 18.1.1, SVG Export Plug-In . SVG Version: 6.00 Build 0)  -->
<svg version="1.1" id="Layer_1" xmlns="http://www.w3.org/2000/svg" xmlns:xlink="http://www.w3.org/1999/xlink" x="0px" y="0px"
	 viewBox="0 0 472.7 354.2" enable-background="new 0 0 472.7 354.2" xml:space="preserve">
<g>
	<path fill="#FFFFFF" d="M231.5,16.3c0-8.4-6.8-15.2-15.2-15.2s-15.2,6.8-15.2,15.2v150.9c0,0,0,0,0,0V238
		c0,23.5-8.4,43.7-25.1,60.4c-16.9,16.7-37,25.1-60.4,25.1c-23.5,0-43.6-8.4-60.1-25.1c-16.7-16.7-25.1-36.8-25.1-60.4
		c0-23.4,8.4-43.5,25.1-60.4c16.6-16.6,36.6-24.9,60.1-24.9c13.3,0,28.1,4.1,44.2,12.2c0,0,0.1,0,0.1,0c1.8,0.8,3.8,1.2,5.9,1.2
		c7.4,0,13.6-5.2,15-12.2c0.2-1,0.3-2,0.3-3.1s-0.1-2.1-0.3-3.1c-0.8-3.8-3-7.1-6.1-9.3c-1.3-0.9-2.7-1.6-4.2-2.1
		c-19.4-9.3-37.7-14-55-14c-31.8,0-59,11.2-81.7,33.7C11.3,178.6,0,205.9,0,238c0,32,11.3,59.3,34,81.9c22.6,22.6,49.9,34,81.7,34
		c32,0,59.3-11.3,81.9-34c22.6-22.6,34-49.9,34-81.9V36h0V16.3z"/>
	<path fill="#FFFFFF" d="M472.7,337.5L472.7,337.5l0-126.2c0-27.8-11-50.1-32.8-66.8c-19.5-14.8-43.6-22.2-72.4-22.2
		c-28.6,0-52.6,7.4-72.1,22.2c-0.1,0-0.2,0.1-0.2,0.2V36h0V16.3c0-9-7.3-16.3-16.3-16.3s-16.3,7.3-16.3,16.3v133.3c0,0,0,0,0,0
		v187.8h0v0c0,9,7.3,16.3,16.3,16.3c9,0,16.3-7.3,16.3-16.3v0l0,0h0V211.3c0-18.8,7.5-33.5,22.6-44.2c13.8-9.9,30.3-14.9,49.7-14.9
		c19.5,0,36.2,5,49.9,14.9c15.1,10.7,22.6,25.4,22.6,44.2v126.2h0h0c0,0.1,0,0.2,0,0.3c0,9,7.3,16.3,16.3,16.3s16.3-7.3,16.3-16.3
		C472.7,337.7,472.7,337.6,472.7,337.5z"/>
</g>
</svg>
