<svg xmlns="http://www.w3.org/2000/svg" viewBox="0 0 472.7 354.2" enable-background="new 0 0 472.7 354.2"><g fill="#fff"><path d="M231.5 16.3c0-8.4-6.8-15.2-15.2-15.2s-15.2 6.8-15.2 15.2V238c0 23.5-8.4 43.7-25.1 60.4-16.9 16.7-37 25.1-60.4 25.1-23.5 0-43.6-8.4-60.1-25.1-16.7-16.7-25.1-36.8-25.1-60.4 0-23.4 8.4-43.5 25.1-60.4 16.6-16.6 36.6-24.9 60.1-24.9 13.3 0 28.1 4.1 44.2 12.2h.1c1.8.8 3.8 1.2 5.9 1.2 7.4 0 13.6-5.2 15-12.2.2-1 .3-2 .3-3.1s-.1-2.1-.3-3.1c-.8-3.8-3-7.1-6.1-9.3-1.3-.9-2.7-1.6-4.2-2.1-19.4-9.3-37.7-14-55-14-31.8 0-59 11.2-81.7 33.7C11.3 178.6 0 205.9 0 238c0 32 11.3 59.3 34 81.9 22.6 22.6 49.9 34 81.7 34 32 0 59.3-11.3 81.9-34 22.6-22.6 34-49.9 34-81.9V16.3zM472.7 337.5V211.3c0-27.8-11-50.1-32.8-66.8-19.5-14.8-43.6-22.2-72.4-22.2-28.6 0-52.6 7.4-72.1 22.2-.1 0-.2.1-.2.2V16.3c0-9-7.3-16.3-16.3-16.3s-16.3 7.3-16.3 16.3v321.1c0 9 7.3 16.3 16.3 16.3s16.3-7.3 16.3-16.3V211.3c0-18.8 7.5-33.5 22.6-44.2 13.8-9.9 30.3-14.9 49.7-14.9 19.5 0 36.2 5 49.9 14.9 15.1 10.7 22.6 25.4 22.6 44.2v126.5c0 9 7.3 16.3 16.3 16.3s16.3-7.3 16.3-16.3c.1-.1.1-.2.1-.3z"/></g></svg>