<svg xmlns="http://www.w3.org/2000/svg" viewBox="4 4 60 60" enable-background="new 4 4 60 60"><path fill="#fff" d="M48 25.2c-1.8.6-2 .6-1.2-.4.6-.7 1.4-1.9 1.4-2.3 0-.1-.3 0-.7.2-.4.2-1.2.5-1.8.7l-1.1.4-1-.7c-.6-.4-1.4-.8-1.8-.9-1.1-.3-2.7-.3-3.7.1-2.6 1-4.3 3.4-4.1 6.1l.1 1-1-.1c-3.8-.5-7.1-2.1-10-4.9L21.7 23l-.4 1c-.8 2.3-.3 4.7 1.3 6.3.8.9.6 1-.8.5-.5-.2-.9-.3-1-.2-.1.1.4 2.1.8 2.8.5 1.1 1.7 2.1 2.9 2.7l1 .5h-1.2c-1.2 0-1.2 0-1.1.5.4 1.4 2.1 2.8 3.9 3.5l1.3.4-1.1.7c-1.7 1-3.6 1.5-5.6 1.6-.9 0-1.7.1-1.7.2 0 .2 2.6 1.4 4 1.9 4.5 1.4 9.8.8 13.7-1.6 2.8-1.7 5.7-5 7-8.2.7-1.7 1.4-4.9 1.4-6.4 0-1 .1-1.1 1.2-2.3.7-.7 1.3-1.4 1.5-1.6.3-.5.3-.5-.8-.1z"/><path fill="#598DCA" d="M34 4C17.4 4 4 17.4 4 34s13.4 30 30 30 30-13.4 30-30S50.6 4 34 4zm14.9 21.2c-.1.2-.8 1-1.5 1.6-1.2 1.2-1.2 1.3-1.2 2.3 0 1.5-.7 4.6-1.4 6.4-1.3 3.2-4.1 6.5-7 8.2-4 2.4-9.3 2.9-13.7 1.6-1.5-.5-4-1.7-4-1.9 0-.1.8-.1 1.7-.2 2 0 3.9-.6 5.6-1.6l1.1-.7-1.3-.4c-1.8-.6-3.5-2.1-3.9-3.5-.1-.4-.1-.5 1.1-.5h1.2l-1-.5c-1.2-.6-2.3-1.7-2.9-2.7-.4-.8-.9-2.7-.8-2.8 0-.1.5.1 1 .2 1.4.5 1.6.4.8-.5-1.6-1.6-2.1-4-1.3-6.3l.4-1 1.4 1.4c2.8 2.8 6.2 4.4 10 4.9l1 .1-.1-1c-.2-2.7 1.5-5.1 4.1-6.1 1-.3 2.6-.4 3.7-.1.4.1 1.2.6 1.8.9l1 .7 1.1-.4c.6-.2 1.5-.5 1.8-.7.4-.2.7-.3.7-.2 0 .4-.8 1.6-1.4 2.3-.9 1-.6 1 1.2.4 1-.3 1-.3.8.1z"/></svg>